Mercenaries (2011)
Action | Drama 
http://www.imdb.com/title/tt1728979/
 
Andy Marlow, an ex British S.A.S serviceman turned mercenary, is sent into the Balkans after a military coup has arisen to rescue a U.S ambassador and his aide.
 
Director: Paris Leonti
Writer: Paris Leonti (screenplay)
Stars: Robert Fucilla, Billy Zane and Kirsty Mitchell
 
SIZE:1.45 GB
720X296, 2238 kb/s. 25.000 fps
English, AC3, 384 Kbps
 
General
Complete name                            : /home/Mercenaries.2011.DVDRip.XviD.AC3-SKmbr.avi
Format                                   : AVI
Format/Info                              : Audio Video Interleave
File size                                : 1.45 GiB
Duration                                 : 1h 32mn
Overall bit rate                         : 2 237 Kbps
Writing application                      : VirtualDubMod 1.5.10.2 (build 2542/release)
Writing library                          : VirtualDubMod build 2542/release
 
Video
ID                                       : 0
Format                                   : MPEG-4 Visual
Format profile                           : Advanced Simple@L5
Format settings, BVOP                    : 4
Format settings, QPel                    : No
Format settings, GMC                     : No warppoints
Format settings, Matrix                  : Default (H.263)
Codec ID                                 : XVID
Codec ID/Hint                            : XviD
Duration                                 : 1h 32mn
Bit rate                                 : 1 844 Kbps
Width                                    : 720 pixels
Height                                   : 296 pixels
Display aspect ratio                     : 2.40:1
Frame rate                               : 25.000 fps
Color space                              : YUV
Chroma subsampling                       : 4:2:0
Bit depth                                : 8 bits
Scan type                                : Progressive
Compression mode                         : Lossy
Bits/(Pixel*Frame)                       : 0.346
Stream size                              : 1.20 GiB (82%)
Writing library                          : XviD 1.2.1 (UTC 2008-12-04)
 
Audio
ID                                       : 1
Format                                   : AC-3
Format/Info                              : Audio Coding 3
Mode extension                           : CM (complete main)
Codec ID                                 : 2000
Duration                                 : 1h 32mn
Bit rate mode                            : Constant
Bit rate                                 : 384 Kbps
Channel(s)                               : 6 channels
Channel positions                        : Front: L C R, Side: L R, LFE
Sampling rate                            : 48.0 KHz
Bit depth                                : 16 bits
Compression mode                         : Lossy
Stream size                              : 255 MiB (17%)
Alignment                                : Split accross interleaves
Interleave, duration                     : 40 ms (1.00 video frame)
Interleave, preload duration             : 500 ms